<?xml version="1.0" standalone="no"?>
<!DOCTYPE svg PUBLIC "-//W3C//DTD SVG 20010904//EN"
 "http://www.w3.org/TR/2001/REC-SVG-20010904/DTD/svg10.dtd">
<svg version="1.0" xmlns="http://www.w3.org/2000/svg"
 width="700.000000pt" height="700.000000pt" viewBox="0 0 700.000000 700.000000"
 preserveAspectRatio="xMidYMid meet">
<metadata>
Created by potrace 1.14, written by Peter Selinger 2001-2017
</metadata>
<g transform="translate(0.000000,700.000000) scale(0.100000,-0.100000)"
fill="#000000" stroke="none">
<path d="M3327 6182 c-9 -2 -17 -9 -17 -15 3 -232 -9 -2749 -13 -2787 -3 -30
-9 -84 -13 -120 -4 -36 -8 -68 -10 -72 -1 -5 -2 -11 -3 -15 0 -5 -337 -8 -748
-7 l-748 0 -3 1122 -2 1122 -220 0 c-121 0 -220 -3 -221 -7 0 -12 0 -2626 0
-2639 1 -7 283 -10 924 -9 507 0 925 -1 929 -3 7 -2 2 -20 -28 -97 -4 -11 -8
-22 -8 -25 -3 -18 -49 -121 -95 -214 -47 -97 -158 -274 -197 -316 -8 -8 -33
-37 -56 -65 -119 -141 -295 -291 -498 -425 -54 -36 -180 -107 -180 -102 0 4
-4 2 -8 -4 -9 -13 -191 -104 -209 -104 -7 0 -13 -4 -13 -9 0 -5 -20 -15 -45
-22 -25 -7 -45 -17 -45 -21 0 -4 -8 -8 -18 -8 -10 0 -22 -3 -26 -7 -3 -4 -12
-8 -19 -9 -7 -2 -43 -16 -82 -32 -63 -26 -214 -81 -240 -87 -5 -1 -17 -5 -25
-8 -20 -8 -113 -38 -125 -41 -5 -1 -37 -10 -70 -20 l-61 -17 39 -42 c45 -49
167 -228 202 -298 l25 -48 52 15 c29 8 103 31 163 51 1015 330 1627 819 1923
1533 54 130 111 312 126 399 2 8 10 17 19 20 9 3 478 6 1042 5 l1025 0 0 1328
0 1328 -232 -2 -233 -3 -1 -1110 c-1 -610 -2 -1114 -3 -1120 -1 -7 -265 -10
-771 -10 l-770 0 5 65 c3 36 9 94 12 130 3 36 8 685 10 1443 4 1132 2 1377 -9
1378 -38 3 -416 4 -431 1z"/>
</g>
</svg>
